<?xml version="1.0" ?><svg viewBox="0 0 60 60" xmlns="http://www.w3.org/2000/svg"><title/><g data-name="Layer 1" id="Layer_1"><path fill="#740001" d="M59,0c-4.40723,0-9.67627,3.26221-12.707,6.293L32.752,19.834a4.99943,4.99943,0,0,0-.937,1.29932l-2.48,4.96045a3.00579,3.00579,0,0,1-.42529.63379l-6.69043,7.64795-3.82568,4.78174C6.188,43.6582,0,50.3335,0,59a1,1,0,0,0,1,1c10.81836,0,18.18262-5.55566,21.8916-16.51367l1.4389-1.79932,2.71136,2.34576.91321,8.59808L26.293,54.293A.99989.99989,0,1,0,27.707,55.707l2-2a.99931.99931,0,0,0,.2876-.8125l-.73755-6.94531,1.8811,1.62744.91309,2.73975A1,1,0,0,0,33.707,50.707l3-3A.99989.99989,0,0,0,35.293,46.293l-1.856,1.856-.48828-1.46533a1.00042,1.00042,0,0,0-.29443-.43994l-7.07367-6.11987,1.16693-1.45923,7.64844-8.605a5.01081,5.01081,0,0,0,.73535-1.08545L37.604,24.02783a2.99886,2.99886,0,0,1,.562-.77979L50.48193,10.93213a6.94941,6.94941,0,0,1,2.4917-1.604l6.37744-2.3916A1.00051,1.00051,0,0,0,60,6V1A1,1,0,0,0,59,0ZM20.84314,43.2572q-.418,1.1879-.89459,2.27728l-3.458-3.458q1.09149-.468,2.26208-.90979ZM2.03369,57.98193C2.44678,51.82129,6.65649,46.78845,14.548,42.962l4.48621,4.48621C15.44922,54.236,9.8493,57.7052,2.03369,57.98193ZM21.91718,41.50311l-1.57745-1.57745,2.74268-3.4292,1.57782,1.57782ZM58,5.30713,52.27148,7.45508a8.94078,8.94078,0,0,0-3.20361,2.063L36.752,21.834a4.99943,4.99943,0,0,0-.937,1.29932l-2.47217,4.9458a3.00011,3.00011,0,0,1-.44189.65186l-6.94281,7.813-1.58948-1.58948,6.04645-6.9101a5.02381,5.02381,0,0,0,.709-1.05615l2.48-4.96045a2.99887,2.99887,0,0,1,.562-.77979L47.707,7.707C50.2915,5.12256,54.49854,2.50879,58,2.06592Z"/></g></svg>