<?xml version="1.0" ?><svg viewBox="0 0 60 60" xmlns="http://www.w3.org/2000/svg"><title/><g data-name="Layer 1" id="Layer_1"><path d="M56.58838,39.19141c-10.186-7.40771-11.70459-19.70654-3.77979-30.603a1,1,0,0,0-.1499-1.34082l-8-7A1.00034,1.00034,0,0,0,43.293.293,17.84344,17.84344,0,0,1,30,6,17.84344,17.84344,0,0,1,16.707.293,1.00027,1.00027,0,0,0,15.34131.24756l-8,7a1,1,0,0,0-.1499,1.34082c7.9248,10.89648,6.40625,23.19531-3.77979,30.603a1.00052,1.00052,0,0,0-.15918,1.47314l8,9a1.00031,1.00031,0,0,0,.71826.335A.95576.95576,0,0,0,12.707,49.707l2.09668-2.09619c2.478,3.78711,5.34863,4.82861,7.90625,5.75684,2.77,1.00537,4.958,1.79932,6.34131,5.94873a1.00015,1.00015,0,0,0,1.89746,0C32.332,55.167,34.52,54.373,37.29,53.36768c2.55762-.92822,5.42822-1.96973,7.90625-5.75684L47.293,49.707a.96031.96031,0,0,0,.73633.29248,1.00031,1.00031,0,0,0,.71826-.335l8-9a1.00052,1.00052,0,0,0-.15918-1.47314ZM44.0332,2.35791l6.62988,5.80078C46.85614,13.698,45.289,19.53912,45.84155,25H33V7.773A19.89,19.89,0,0,0,44.0332,2.35791ZM9.33691,8.15869,15.9668,2.35791A19.89,19.89,0,0,0,27,7.773V25H14.15845C14.711,19.53912,13.14386,13.698,9.33691,8.15869Zm14.05518,43.3291c-2.58594-.93848-5.25977-1.90869-7.51807-5.97363a1.00058,1.00058,0,0,0-.73535-.50439A1.024,1.024,0,0,0,15,45a.99991.99991,0,0,0-.707.293l-2.25,2.25L5.46582,40.144A23.25735,23.25735,0,0,0,12.61365,31H27V53.138A16.82117,16.82117,0,0,0,23.39209,51.48779ZM30,56.459a9.74239,9.74239,0,0,0-1-1.48456V30a1,1,0,0,0-1-1H13.34528a20.53459,20.53459,0,0,0,.5094-2H28a1,1,0,0,0,1-1V7.95605C29.33325,7.97089,29.66071,8,30,8s.66675-.02911,1-.04395V26a1,1,0,0,0,1,1H46.14532a20.53459,20.53459,0,0,0,.5094,2H32a1,1,0,0,0-1,1V54.97443A9.74239,9.74239,0,0,0,30,56.459Zm17.957-8.916-2.25-2.25a1,1,0,0,0-1.58105.22119c-2.2583,4.06494-4.93213,5.03516-7.51807,5.97363A16.82117,16.82117,0,0,0,33,53.138V31H47.38635a23.25735,23.25735,0,0,0,7.14783,9.144Z"/></g></svg>